Coordinates
version=1
nRows=16
nColumns=40
inDegrees=yes

Units are S.I. units (second, meters, Newtons, ...)
Angles are in degrees.

endheader
time	pelvis_tilt	pelvis_list	pelvis_rotation	pelvis_tx	pelvis_ty	pelvis_tz	hip_flexion_r	hip_adduction_r	hip_rotation_r	knee_angle_r	knee_angle_r_beta	ankle_angle_r	subtalar_angle_r	mtp_angle_r	hip_flexion_l	hip_adduction_l	hip_rotation_l	knee_angle_l	knee_angle_l_beta	ankle_angle_l	subtalar_angle_l	mtp_angle_l	lumbar_extension	lumbar_bending	lumbar_rotation	arm_flex_r	arm_add_r	arm_rot_r	elbow_flex_r	pro_sup_r	wrist_flex_r	wrist_dev_r	arm_flex_l	arm_add_l	arm_rot_l	elbow_flex_l	pro_sup_l	wrist_flex_l	wrist_dev_l
     55.25342857	     -4.45884365	     -3.43889668	     -4.00434597	      1.16758634	      0.92927193	      0.42033617	     23.01282766	     -2.90714778	    -12.85413178	     10.08431584	     10.08431584	      1.61125684	      9.57847960	      5.17057371	      4.14534409	     -4.59277596	    -13.58978191	     15.82788367	     15.82788367	     16.93263435	     -8.33939339	     -1.74268060	    -10.52643627	      2.12123318	      1.90206528	    -11.65534665	    -14.26431115	     -6.44117405	     29.07066225	     47.08202613	      0.00000000	      0.00000000	     14.55793372	    -14.96165133	    -13.72392912	     63.16840186	     46.81216534	      0.00000000	      0.00000000
     55.26685714	     -4.55368612	     -3.56248945	     -3.81162510	      1.16865646	      0.92835436	      0.42210351	     22.66923761	     -2.60379758	    -13.38841047	     10.46433731	     10.46433731	      1.49486338	      9.18063909	      4.93422866	      3.69514064	     -4.80909903	    -13.44545261	     15.62727320	     15.62727320	     17.21505813	     -8.18348493	     -1.83366808	    -10.22434734	      2.40876041	      1.89330078	    -11.55353071	    -14.11546435	     -6.46621250	     29.22274359	     47.07446503	      0.00000000	      0.00000000	     14.58104050	    -14.67740833	    -13.73167203	     63.55598974	     46.82036127	      0.00000000	      0.00000000
     55.28028571	     -4.53648439	     -3.52252494	     -3.70901978	      1.17001951	      0.92740479	      0.42405696	     22.42599882	     -2.48446963	    -13.37760805	     11.35135857	     11.35135857	      1.10133149	      8.12400298	      2.83918550	      3.03210742	     -4.88973294	    -13.75618064	     15.31965347	     15.31965347	     17.52463295	     -7.46759786	     -2.15193508	    -10.06874123	      2.46568900	      1.88766715	    -11.54224848	    -13.99273586	     -6.74903607	     30.01710611	     47.03568498	      0.00000000	      0.00000000	     14.00248743	    -14.30300408	    -14.31059869	     65.50149960	     46.90293942	      0.00000000	      0.00000000
     55.29371429	     -4.57622424	     -3.77221403	     -3.46058235	      1.17149876	      0.92663555	      0.42592464	     21.98604125	     -2.12632265	    -13.75451402	     11.92358118	     11.92358118	      1.11895009	      7.64853503	      2.44250407	      2.53021723	     -5.25996760	    -13.52752082	     15.17812841	     15.17812841	     17.78957184	     -7.38068746	     -2.19740902	     -9.77044839	      2.96641614	      1.82126514	    -11.20170113	    -13.95089190	     -6.75889371	     30.20734566	     47.02772656	      0.00000000	      0.00000000	     13.84870471	    -13.98698012	    -14.26648152	     65.59952715	     46.90172406	      0.00000000	      0.00000000
     55.30714286	     -4.54294092	     -3.94754616	     -3.28072753	      1.17318683	      0.92599606	      0.42796631	     21.61013397	     -1.86433135	    -13.88899533	     12.73512632	     12.73512632	      1.37156098	      7.06082622	      1.90424311	      1.90440778	     -5.55152126	    -13.39505750	     14.99362722	     14.99362722	     18.07273284	     -7.24345960	     -2.22288796	     -9.53986941	      3.36096472	      1.84216312	    -10.73338415	    -13.92489344	     -6.76845746	     30.45100138	     47.01890892	      0.00000000	      0.00000000	     13.61271076	    -13.63538325	    -14.22861974	     65.68452379	     46.89989500	      0.00000000	      0.00000000
     55.32057143	     -4.42713406	     -4.05627406	     -3.15416984	      1.17502627	      0.92553824	      0.43018391	     21.30670920	     -1.68959219	    -13.77937809	     13.76801589	     13.76801589	      1.78247957	      6.35836324	      1.22915921	      1.17239296	     -5.78284970	    -13.39144112	     14.79969085	     14.79969085	     18.29295734	     -7.07366260	     -2.17857748	     -9.39047311	      3.68075130	      1.89383848	    -10.17351141	    -13.96260025	     -6.79313333	     30.74744566	     47.00953058	      0.00000000	      0.00000000	     13.27335080	    -13.29858073	    -14.22061355	     65.74685660	     46.89932485	      0.00000000	      0.00000000
     55.33400000	     -4.31915457	     -3.76218291	     -3.14857822	      1.17680955	      0.92508307	      0.43258876	     21.44247384	     -1.88782310	    -12.80911986	     15.36370073	     15.36370073	      2.04247398	      4.51660876	     -0.51041897	      0.41772863	     -5.59996700	    -13.72262267	     14.54203471	     14.54203471	     18.52105573	     -6.45713439	     -1.79329884	     -9.24829346	      3.52129989	      1.65629855	     -9.51107842	    -13.98353672	     -6.87921860	     31.39969659	     46.97751588	      0.00000000	      0.00000000	     12.59005075	    -13.30882236	    -14.73342142	     66.26394968	     46.94899629	      0.00000000	      0.00000000
     55.34742857	     -4.18885455	     -3.79260098	     -3.10734495	      1.17870747	      0.92491324	      0.43525877	     21.20178605	     -1.69092770	    -12.15766793	     16.24517618	     16.24517618	      2.13953713	      3.16975663	     -2.28428208	     -0.13284468	     -5.85120680	    -13.88426427	     14.78374502	     14.78374502	     19.03507876	     -6.09736706	     -1.05347980	     -9.12788160	      3.72408441	      1.40613709	     -8.65900854	    -14.07925992	     -6.90566136	     32.07883704	     46.93021715	      0.00000000	      0.00000000	     11.70765271	    -13.01818289	    -15.36642667	     66.77746664	     47.01137190	      0.00000000	      0.00000000
     55.36085714	     -3.97302974	     -3.81038656	     -3.05828172	      1.18062511	      0.92509624	      0.43803743	     20.81294351	     -1.54059166	    -11.75728123	     16.95682597	     16.95682597	      2.36900336	      2.34425075	     -3.85442770	     -0.59265630	     -6.14771008	    -14.02385749	     15.39095035	     15.39095035	     19.74439499	     -5.72974754	      0.37289519	     -9.13408992	      3.91567626	      1.25993487	     -7.67766377	    -14.19155228	     -6.67092485	     32.54075956	     46.83561335	      0.00000000	      0.00000000	     10.95985135	    -12.69171806	    -16.11226947	     67.03580199	     47.09758057	      0.00000000	      0.00000000
     55.37428571	     -3.81838840	     -3.76954899	     -3.02946552	      1.18235850	      0.92528889	      0.44091821	     20.62036757	     -1.48455589	    -11.44891674	     17.86386499	     17.86386499	      3.13924623	      1.84183490	     -4.15443025	     -0.86735616	     -6.38345962	    -13.95800577	     16.12432860	     16.12432860	     19.80937829	     -5.97808571	      0.45734391	     -9.05467391	      4.02321789	      1.30760664	     -6.69567454	    -14.26366531	     -6.68550877	     32.99757290	     46.81196243	      0.00000000	      0.00000000	     10.43122989	    -12.49946982	    -16.02554510	     66.60432355	     47.08716159	      0.00000000	      0.00000000
     55.38771429	     -3.52206240	     -3.73011715	     -3.00998007	      1.18410736	      0.92598132	      0.44383883	     20.08264234	     -1.40544236	    -11.20482542	     18.36679049	     18.36679049	      3.85745100	      1.68178078	     -4.43421393	     -1.22093006	     -6.63757390	    -13.87277900	     16.96888573	     16.96888573	     19.65315337	     -6.30000602	      0.45041697	     -9.18672652	      4.17597895	      1.63498348	     -5.72278542	    -14.35244135	     -6.71057835	     33.39279751	     46.80261640	      0.00000000	      0.00000000	      9.90408996	    -12.05752026	    -15.87717884	     66.29057530	     47.06829546	      0.00000000	      0.00000000
     55.40114286	     -3.47950064	     -3.79831182	     -2.76565366	      1.18523936	      0.92609742	      0.44687358	     19.98235579	     -1.24056328	    -11.09158032	     19.14302239	     19.14302239	      4.61187996	      1.02917564	     -4.56049309	     -0.55208297	     -7.23886914	    -13.40898179	     19.10467761	     19.10467761	     19.59715299	     -7.09225586	      0.16975372	     -9.07042395	      4.41057804	      1.31556476	     -4.51491368	    -14.44267879	     -6.83484865	     34.15911812	     46.77842753	      0.00000000	      0.00000000	      9.34861147	    -12.19890033	    -15.87322640	     65.56671147	     47.05818922	      0.00000000	      0.00000000
     55.41457143	     -3.26563241	     -3.86432246	     -2.55717815	      1.18634094	      0.92665057	      0.44992367	     19.50108929	     -1.04987172	    -11.06364278	     19.53065901	     19.53065901	      5.28718221	      0.72660854	     -4.64688732	      0.00955029	     -7.83104012	    -12.93298991	     21.35218345	     21.35218345	     19.29793050	     -7.94826399	     -0.20565277	     -9.17851461	      4.61364472	      1.30687783	     -3.29143699	    -14.56011595	     -6.92894929	     34.87470006	     46.75683619	      0.00000000	      0.00000000	      8.85697166	    -12.06441815	    -15.78966565	     64.93900316	     47.04250133	      0.00000000	      0.00000000
     55.42800000	     -3.26529360	     -3.94469637	     -2.25664657	      1.18711262	      0.92691112	      0.45287162	     19.16700739	     -0.84108041	    -11.15130263	     19.74106945	     19.74106945	      5.88283251	      0.45754542	     -4.63286072	      1.20989630	     -8.51686333	    -12.23999261	     24.23477457	     24.23477457	     18.71824861	     -9.11550380	     -0.92850806	     -9.00440386	      4.87960239	      1.09190687	     -2.06247413	    -14.64237038	     -7.03992754	     35.80939850	     46.72310319	      0.00000000	      0.00000000	      8.25320477	    -11.91622823	    -15.64526322	     63.99028448	     47.01854419	      0.00000000	      0.00000000
     55.44142857	     -3.00004831	     -4.09787699	     -1.90345599	      1.18773239	      0.92749704	      0.45580001	     18.48659520	     -0.57616336	    -11.42490705	     19.86064263	     19.86064263	      6.42156718	      0.36786510	     -4.72422133	      2.34629497	     -9.28815194	    -11.40335856	     27.45942157	     27.45942157	     17.93631554	    -10.37299098	     -1.64275274	     -9.24959353	      5.13196903	      1.12211265	     -0.72396433	    -14.79706932	     -7.11622757	     36.64585325	     46.69703425	      0.00000000	      0.00000000	      7.89317506	    -11.76305999	    -15.45988949	     63.22359154	     46.99362088	      0.00000000	      0.00000000
     55.45485714	     -3.05349097	     -4.18698666	     -1.46498970	      1.18791664	      0.92752520	      0.45844885	     18.16022001	     -0.39527917	    -11.74632976	     19.94096178	     19.94096178	      6.89084572	      0.18668652	     -4.75647864	      4.18380089	     -9.94902478	    -10.20728972	     31.09375075	     31.09375075	     16.37370562	    -12.31105917	     -3.29491210	     -9.04609477	      5.43672699	      0.84565836	      0.47879047	    -14.93635218	     -7.13474343	     38.20454573	     46.62217961	      0.00000000	      0.00000000	      7.50119140	    -11.72448148	    -15.05666855	     61.44724175	     46.94443668	      0.00000000	      0.00000000
